<?xml version="1.0" encoding="UTF-8"?>
<!DOCTYPE svg PUBLIC "-//W3C//DTD SVG 1.1//EN" "http://www.w3.org/Graphics/SVG/1.1/DTD/svg11.dtd">
<!-- Creator: CorelDRAW X8 -->
<svg xmlns="http://www.w3.org/2000/svg" xml:space="preserve" width="131.056mm" height="131.061mm" version="1.1" style="shape-rendering:geometricPrecision; text-rendering:geometricPrecision; image-rendering:optimizeQuality; fill-rule:evenodd; clip-rule:evenodd"
viewBox="0 0 19644 19644"
 xmlns:xlink="http://www.w3.org/1999/xlink">
 <defs>
  <style type="text/css">
   <![CDATA[
    .fil0 {fill:#383775}
   ]]>
  </style>
 </defs>
 <g id="Layer_x0020_1">
  <metadata id="CorelCorpID_0Corel-Layer"/>
  <path class="fil0" d="M2383 827c123,-82 232,-191 372,-247 814,-338 1741,-369 2604,-571 1105,-254 3254,4825 1880,5266 -510,160 -2121,401 -2546,722 -379,286 -198,986 176,1426 986,1160 2433,2451 3579,3583l1 -1c30,30 63,64 94,96 32,31 65,63 97,94l-1 0c1131,1145 2422,2595 3581,3580 441,375 1141,554 1426,175 320,-425 563,-2036 722,-2546 441,-1374 5522,776 5266,1881 -202,863 -233,1788 -570,2605 -58,138 -167,247 -248,373 -1841,2900 -6302,3273 -9626,444 -1269,-1080 -2503,-2205 -3702,-3362l-7 5c-31,-32 -60,-65 -93,-97 -29,-31 -64,-61 -97,-92l6 -7c-1158,-1200 -2281,-2431 -3362,-3702 -2827,-3323 -2453,-7785 448,-9625z"/>
 </g>
</svg>
