<svg width="96" height="96" viewBox="0 0 96 96" fill="none" xmlns="http://www.w3.org/2000/svg">
<path d="M65.808 20.5917L40.368 46.0314L30.192 35.8555C29.7617 35.353 29.2322 34.9449 28.6367 34.6568C28.0411 34.3687 27.3925 34.2068 26.7315 34.1813C26.0704 34.1558 25.4112 34.2671 24.7953 34.5085C24.1793 34.7498 23.6199 35.1158 23.1521 35.5836C22.6843 36.0514 22.3183 36.6108 22.0769 37.2267C21.8356 37.8427 21.7242 38.5019 21.7498 39.1629C21.7753 39.8239 21.9372 40.4726 22.2253 41.0681C22.5134 41.6636 22.9215 42.1931 23.424 42.6234L37.008 56.2072C37.9021 57.094 39.1088 57.5939 40.368 57.5992C40.9997 57.6028 41.6259 57.4818 42.2108 57.2429C42.7956 57.004 43.3275 56.6521 43.776 56.2072L72.576 27.4076C73.0259 26.9614 73.383 26.4305 73.6267 25.8456C73.8704 25.2607 73.9958 24.6333 73.9958 23.9997C73.9958 23.366 73.8704 22.7386 73.6267 22.1537C73.383 21.5688 73.0259 21.0379 72.576 20.5917C71.6767 19.6977 70.4601 19.1959 69.192 19.1959C67.9239 19.1959 66.7073 19.6977 65.808 20.5917ZM81.6 0H14.4C10.5809 0 6.91819 1.51712 4.21766 4.2176C1.51714 6.91809 0 10.5807 0 14.3998V62.3991C0 66.2182 1.51714 69.8808 4.21766 72.5813C6.91819 75.2818 10.5809 76.7989 14.4 76.7989H70.032L87.792 94.6067C88.2405 95.0515 88.7724 95.4035 89.3572 95.6424C89.9421 95.8812 90.5683 96.0023 91.2 95.9987C91.8297 96.0149 92.4543 95.8834 93.024 95.6147C93.9006 95.2546 94.6509 94.6431 95.1805 93.8572C95.7101 93.0714 95.9953 92.1464 96 91.1987V14.3998C96 10.5807 94.4829 6.91809 91.7823 4.2176C89.0818 1.51712 85.4191 0 81.6 0ZM86.4 79.6309L75.408 68.591C74.9595 68.1462 74.4276 67.7942 73.8428 67.5554C73.2579 67.3165 72.6317 67.1954 72 67.1991H14.4C13.127 67.1991 11.9061 66.6934 11.0059 65.7932C10.1057 64.893 9.6 63.6721 9.6 62.3991V14.3998C9.6 13.1268 10.1057 11.9059 11.0059 11.0057C11.9061 10.1056 13.127 9.59987 14.4 9.59987H81.6C82.873 9.59987 84.0939 10.1056 84.9941 11.0057C85.8943 11.9059 86.4 13.1268 86.4 14.3998V79.6309Z" fill="url(#paint0_linear)"/>
<defs>
<linearGradient id="paint0_linear" x1="48" y1="0" x2="48" y2="96" gradientUnits="userSpaceOnUse">
<stop stop-color="#31BDF4"/>
<stop offset="1" stop-color="#1AB4B3"/>
</linearGradient>
</defs>
</svg>
